0
SECTION
2
HEADER
9
$ACADVER
1
AC1009
0
ENDSEC
0
SECTION
2
TABLES
0
TABLE
2
LTYPE
70
1
0
LTYPE
2
CONTINUOUS
70
0
3
Solid
72
65
73
0
40
0.0
0
ENDTAB
0
TABLE
2
LAYER
70
6
0
LAYER
2
CONC
70
0
62
251
6
CONTINUOUS
0
LAYER
2
OPENING
70
0
62
251
6
CONTINUOUS
0
LAYER
2
DUCT
70
0
62
2
6
CONTINUOUS
0
LAYER
2
REBAR-H
70
0
62
4
6
CONTINUOUS
0
LAYER
2
REBAR-V
70
0
62
3
6
CONTINUOUS
0
LAYER
2
REBAR-O
70
0
62
6
6
CONTINUOUS
0
ENDTAB
0
ENDSEC
0
SECTION
2
ENTITIES
0
LINE
8
CONC
10
-3000.0000
20
0.0000
11
3000.0000
21
0.0000
0
LINE
8
CONC
10
3000.0000
20
0.0000
11
6000.0000
21
6600.0000
0
LINE
8
CONC
10
6000.0000
20
6600.0000
11
-6000.0000
21
6600.0000
0
LINE
8
CONC
10
-6000.0000
20
6600.0000
11
-3000.0000
21
0.0000
0
LINE
8
OPENING
10
-700.0000
20
2300.0000
11
700.0000
21
2300.0000
0
LINE
8
OPENING
10
700.0000
20
2300.0000
11
700.0000
21
4300.0000
0
LINE
8
OPENING
10
700.0000
20
4300.0000
11
-700.0000
21
4300.0000
0
LINE
8
OPENING
10
-700.0000
20
4300.0000
11
-700.0000
21
2300.0000
0
LINE
8
REBAR-H
10
-3027.9862
20
200.0000
11
3027.9862
21
200.0000
0
LINE
8
REBAR-H
10
-3118.8952
20
400.0000
11
3118.8952
21
400.0000
0
LINE
8
REBAR-H
10
-3209.8043
20
600.0000
11
3209.8043
21
600.0000
0
LINE
8
REBAR-H
10
-3300.7134
20
800.0000
11
3300.7134
21
800.0000
0
LINE
8
REBAR-H
10
-3391.6225
20
1000.0000
11
3391.6225
21
1000.0000
0
LINE
8
REBAR-H
10
-3482.5316
20
1200.0000
11
3482.5316
21
1200.0000
0
LINE
8
REBAR-H
10
-3573.4407
20
1400.0000
11
3573.4407
21
1400.0000
0
LINE
8
REBAR-H
10
-3664.3498
20
1600.0000
11
3664.3498
21
1600.0000
0
LINE
8
REBAR-H
10
-3755.2589
20
1800.0000
11
3755.2589
21
1800.0000
0
LINE
8
REBAR-H
10
-3846.1680
20
2000.0000
11
3846.1680
21
2000.0000
0
LINE
8
REBAR-H
10
-3937.0771
20
2200.0000
11
3937.0771
21
2200.0000
0
LINE
8
REBAR-H
10
-4027.9862
20
2400.0000
11
-758.0000
21
2400.0000
0
LINE
8
REBAR-H
10
758.0000
20
2400.0000
11
4027.9862
21
2400.0000
0
LINE
8
REBAR-H
10
-4118.8952
20
2600.0000
11
-758.0000
21
2600.0000
0
LINE
8
REBAR-H
10
758.0000
20
2600.0000
11
4118.8952
21
2600.0000
0
LINE
8
REBAR-H
10
-4209.8043
20
2800.0000
11
-758.0000
21
2800.0000
0
LINE
8
REBAR-H
10
758.0000
20
2800.0000
11
4209.8043
21
2800.0000
0
LINE
8
REBAR-H
10
-4300.7134
20
3000.0000
11
-758.0000
21
3000.0000
0
LINE
8
REBAR-H
10
758.0000
20
3000.0000
11
4300.7134
21
3000.0000
0
LINE
8
REBAR-H
10
-4391.6225
20
3200.0000
11
-758.0000
21
3200.0000
0
LINE
8
REBAR-H
10
758.0000
20
3200.0000
11
4391.6225
21
3200.0000
0
LINE
8
REBAR-H
10
-4482.5316
20
3400.0000
11
-758.0000
21
3400.0000
0
LINE
8
REBAR-H
10
758.0000
20
3400.0000
11
4482.5316
21
3400.0000
0
LINE
8
REBAR-H
10
-4573.4407
20
3600.0000
11
-758.0000
21
3600.0000
0
LINE
8
REBAR-H
10
758.0000
20
3600.0000
11
4573.4407
21
3600.0000
0
LINE
8
REBAR-H
10
-4664.3498
20
3800.0000
11
-758.0000
21
3800.0000
0
LINE
8
REBAR-H
10
758.0000
20
3800.0000
11
4664.3498
21
3800.0000
0
LINE
8
REBAR-H
10
-4755.2589
20
4000.0000
11
-758.0000
21
4000.0000
0
LINE
8
REBAR-H
10
758.0000
20
4000.0000
11
4755.2589
21
4000.0000
0
LINE
8
REBAR-H
10
-4846.1680
20
4200.0000
11
-758.0000
21
4200.0000
0
LINE
8
REBAR-H
10
758.0000
20
4200.0000
11
4846.1680
21
4200.0000
0
LINE
8
REBAR-H
10
-4937.0771
20
4400.0000
11
4937.0771
21
4400.0000
0
LINE
8
REBAR-H
10
-5027.9862
20
4600.0000
11
5027.9862
21
4600.0000
0
LINE
8
REBAR-H
10
-5118.8952
20
4800.0000
11
5118.8952
21
4800.0000
0
LINE
8
REBAR-H
10
-5209.8043
20
5000.0000
11
5209.8043
21
5000.0000
0
LINE
8
REBAR-H
10
-5300.7134
20
5200.0000
11
5300.7134
21
5200.0000
0
LINE
8
REBAR-H
10
-5391.6225
20
5400.0000
11
5391.6225
21
5400.0000
0
LINE
8
REBAR-H
10
-5482.5316
20
5600.0000
11
5482.5316
21
5600.0000
0
LINE
8
REBAR-H
10
-5573.4407
20
5800.0000
11
5573.4407
21
5800.0000
0
LINE
8
REBAR-H
10
-5664.3498
20
6000.0000
11
5664.3498
21
6000.0000
0
LINE
8
REBAR-H
10
-5755.2589
20
6200.0000
11
5755.2589
21
6200.0000
0
LINE
8
REBAR-H
10
-5846.1680
20
6400.0000
11
5846.1680
21
6400.0000
0
LINE
8
REBAR-V
10
-5600.0000
20
5858.4305
11
-5600.0000
21
6542.0000
0
LINE
8
REBAR-V
10
-5400.0000
20
5418.4305
11
-5400.0000
21
6542.0000
0
LINE
8
REBAR-V
10
-5200.0000
20
4978.4305
11
-5200.0000
21
6542.0000
0
LINE
8
REBAR-V
10
-5000.0000
20
4538.4305
11
-5000.0000
21
6542.0000
0
LINE
8
REBAR-V
10
-4800.0000
20
4098.4305
11
-4800.0000
21
6542.0000
0
LINE
8
REBAR-V
10
-4600.0000
20
3658.4305
11
-4600.0000
21
6542.0000
0
LINE
8
REBAR-V
10
-4400.0000
20
3218.4305
11
-4400.0000
21
6542.0000
0
LINE
8
REBAR-V
10
-4200.0000
20
2778.4305
11
-4200.0000
21
6542.0000
0
LINE
8
REBAR-V
10
-4000.0000
20
2338.4305
11
-4000.0000
21
6542.0000
0
LINE
8
REBAR-V
10
-3800.0000
20
1898.4305
11
-3800.0000
21
6542.0000
0
LINE
8
REBAR-V
10
-3600.0000
20
1458.4305
11
-3600.0000
21
6542.0000
0
LINE
8
REBAR-V
10
-3400.0000
20
1018.4305
11
-3400.0000
21
6542.0000
0
LINE
8
REBAR-V
10
-3200.0000
20
578.4305
11
-3200.0000
21
6542.0000
0
LINE
8
REBAR-V
10
-3000.0000
20
138.4305
11
-3000.0000
21
6542.0000
0
LINE
8
REBAR-V
10
-2800.0000
20
58.0000
11
-2800.0000
21
6542.0000
0
LINE
8
REBAR-V
10
-2600.0000
20
58.0000
11
-2600.0000
21
6542.0000
0
LINE
8
REBAR-V
10
-2400.0000
20
58.0000
11
-2400.0000
21
6542.0000
0
LINE
8
REBAR-V
10
-2200.0000
20
58.0000
11
-2200.0000
21
6542.0000
0
LINE
8
REBAR-V
10
-2000.0000
20
58.0000
11
-2000.0000
21
6542.0000
0
LINE
8
REBAR-V
10
-1800.0000
20
58.0000
11
-1800.0000
21
6542.0000
0
LINE
8
REBAR-V
10
-1600.0000
20
58.0000
11
-1600.0000
21
6542.0000
0
LINE
8
REBAR-V
10
-1400.0000
20
58.0000
11
-1400.0000
21
6542.0000
0
LINE
8
REBAR-V
10
-1200.0000
20
58.0000
11
-1200.0000
21
6542.0000
0
LINE
8
REBAR-V
10
-1000.0000
20
58.0000
11
-1000.0000
21
6542.0000
0
LINE
8
REBAR-V
10
-800.0000
20
58.0000
11
-800.0000
21
6542.0000
0
LINE
8
REBAR-V
10
-600.0000
20
58.0000
11
-600.0000
21
2242.0000
0
LINE
8
REBAR-V
10
-600.0000
20
4358.0000
11
-600.0000
21
6542.0000
0
LINE
8
REBAR-V
10
-400.0000
20
58.0000
11
-400.0000
21
2242.0000
0
LINE
8
REBAR-V
10
-400.0000
20
4358.0000
11
-400.0000
21
6542.0000
0
LINE
8
REBAR-V
10
-200.0000
20
58.0000
11
-200.0000
21
2242.0000
0
LINE
8
REBAR-V
10
-200.0000
20
4358.0000
11
-200.0000
21
6542.0000
0
LINE
8
REBAR-V
10
0.0000
20
58.0000
11
0.0000
21
2242.0000
0
LINE
8
REBAR-V
10
0.0000
20
4358.0000
11
0.0000
21
6542.0000
0
LINE
8
REBAR-V
10
200.0000
20
58.0000
11
200.0000
21
2242.0000
0
LINE
8
REBAR-V
10
200.0000
20
4358.0000
11
200.0000
21
6542.0000
0
LINE
8
REBAR-V
10
400.0000
20
58.0000
11
400.0000
21
2242.0000
0
LINE
8
REBAR-V
10
400.0000
20
4358.0000
11
400.0000
21
6542.0000
0
LINE
8
REBAR-V
10
600.0000
20
58.0000
11
600.0000
21
2242.0000
0
LINE
8
REBAR-V
10
600.0000
20
4358.0000
11
600.0000
21
6542.0000
0
LINE
8
REBAR-V
10
800.0000
20
58.0000
11
800.0000
21
6542.0000
0
LINE
8
REBAR-V
10
1000.0000
20
58.0000
11
1000.0000
21
6542.0000
0
LINE
8
REBAR-V
10
1200.0000
20
58.0000
11
1200.0000
21
6542.0000
0
LINE
8
REBAR-V
10
1400.0000
20
58.0000
11
1400.0000
21
6542.0000
0
LINE
8
REBAR-V
10
1600.0000
20
58.0000
11
1600.0000
21
6542.0000
0
LINE
8
REBAR-V
10
1800.0000
20
58.0000
11
1800.0000
21
6542.0000
0
LINE
8
REBAR-V
10
2000.0000
20
58.0000
11
2000.0000
21
6542.0000
0
LINE
8
REBAR-V
10
2200.0000
20
58.0000
11
2200.0000
21
6542.0000
0
LINE
8
REBAR-V
10
2400.0000
20
58.0000
11
2400.0000
21
6542.0000
0
LINE
8
REBAR-V
10
2600.0000
20
58.0000
11
2600.0000
21
6542.0000
0
LINE
8
REBAR-V
10
2800.0000
20
58.0000
11
2800.0000
21
6542.0000
0
LINE
8
REBAR-V
10
3000.0000
20
138.4305
11
3000.0000
21
6542.0000
0
LINE
8
REBAR-V
10
3200.0000
20
578.4305
11
3200.0000
21
6542.0000
0
LINE
8
REBAR-V
10
3400.0000
20
1018.4305
11
3400.0000
21
6542.0000
0
LINE
8
REBAR-V
10
3600.0000
20
1458.4305
11
3600.0000
21
6542.0000
0
LINE
8
REBAR-V
10
3800.0000
20
1898.4305
11
3800.0000
21
6542.0000
0
LINE
8
REBAR-V
10
4000.0000
20
2338.4305
11
4000.0000
21
6542.0000
0
LINE
8
REBAR-V
10
4200.0000
20
2778.4305
11
4200.0000
21
6542.0000
0
LINE
8
REBAR-V
10
4400.0000
20
3218.4305
11
4400.0000
21
6542.0000
0
LINE
8
REBAR-V
10
4600.0000
20
3658.4305
11
4600.0000
21
6542.0000
0
LINE
8
REBAR-V
10
4800.0000
20
4098.4305
11
4800.0000
21
6542.0000
0
LINE
8
REBAR-V
10
5000.0000
20
4538.4305
11
5000.0000
21
6542.0000
0
LINE
8
REBAR-V
10
5200.0000
20
4978.4305
11
5200.0000
21
6542.0000
0
LINE
8
REBAR-V
10
5400.0000
20
5418.4305
11
5400.0000
21
6542.0000
0
LINE
8
REBAR-V
10
5600.0000
20
5858.4305
11
5600.0000
21
6542.0000
0
LINE
8
REBAR-O
10
-1398.0000
20
2092.0000
11
-1398.0000
21
2194.0000
0
ARC
8
REBAR-O
10
-1350.0000
20
2194.0000
40
48.0000
50
90.0000
51
180.0000
0
LINE
8
REBAR-O
10
-1350.0000
20
2242.0000
11
1350.0000
21
2242.0000
0
ARC
8
REBAR-O
10
1350.0000
20
2194.0000
40
48.0000
50
0.0000
51
90.0000
0
LINE
8
REBAR-O
10
1398.0000
20
2194.0000
11
1398.0000
21
2092.0000
0
LINE
8
REBAR-O
10
-1398.0000
20
4508.0000
11
-1398.0000
21
4406.0000
0
ARC
8
REBAR-O
10
-1350.0000
20
4406.0000
40
48.0000
50
180.0000
51
270.0000
0
LINE
8
REBAR-O
10
-1350.0000
20
4358.0000
11
1350.0000
21
4358.0000
0
ARC
8
REBAR-O
10
1350.0000
20
4406.0000
40
48.0000
50
270.0000
51
0.0000
0
LINE
8
REBAR-O
10
1398.0000
20
4406.0000
11
1398.0000
21
4508.0000
0
LINE
8
REBAR-O
10
-908.0000
20
1602.0000
11
-806.0000
21
1602.0000
0
ARC
8
REBAR-O
10
-806.0000
20
1650.0000
40
48.0000
50
270.0000
51
0.0000
0
LINE
8
REBAR-O
10
-758.0000
20
1650.0000
11
-758.0000
21
4950.0000
0
ARC
8
REBAR-O
10
-806.0000
20
4950.0000
40
48.0000
50
0.0000
51
90.0000
0
LINE
8
REBAR-O
10
-806.0000
20
4998.0000
11
-908.0000
21
4998.0000
0
LINE
8
REBAR-O
10
908.0000
20
1602.0000
11
806.0000
21
1602.0000
0
ARC
8
REBAR-O
10
806.0000
20
1650.0000
40
48.0000
50
180.0000
51
270.0000
0
LINE
8
REBAR-O
10
758.0000
20
1650.0000
11
758.0000
21
4950.0000
0
ARC
8
REBAR-O
10
806.0000
20
4950.0000
40
48.0000
50
90.0000
51
180.0000
0
LINE
8
REBAR-O
10
806.0000
20
4998.0000
11
908.0000
21
4998.0000
0
TEXT
8
REBAR-H
10
3027.9862
20
260.0000
40
90.0000
1
H1  D16@200
50
0.0000
0
TEXT
8
REBAR-V
10
-5600.0000
20
6602.0000
40
90.0000
1
V1  D16@200
50
0.0000
0
TEXT
8
REBAR-O
10
1398.0000
20
2302.0000
40
90.0000
1
O1  D16@200
50
0.0000
0
ENDSEC
0
EOF
